<svg id="visual" viewBox="0 0 1920 1080" width="1920" height="1080" xmlns="http://www.w3.org/2000/svg" xmlns:xlink="http://www.w3.org/1999/xlink" version="1.1"><rect x="0" y="0" width="1920" height="1080" fill="#ffffff"></rect><path d="M1318 1080L1300.2 1054.3C1282.3 1028.7 1246.7 977.3 1226.3 925.8C1206 874.3 1201 822.7 1230.5 771.2C1260 719.7 1324 668.3 1315 617C1306 565.7 1224 514.3 1183.3 463C1142.7 411.7 1143.3 360.3 1165.5 308.8C1187.7 257.3 1231.3 205.7 1248.7 154.2C1266 102.7 1257 51.3 1252.5 25.7L1248 0L1920 0L1920 25.7C1920 51.3 1920 102.7 1920 154.2C1920 205.7 1920 257.3 1920 308.8C1920 360.3 1920 411.7 1920 463C1920 514.3 1920 565.7 1920 617C1920 668.3 1920 719.7 1920 771.2C1920 822.7 1920 874.3 1920 925.8C1920 977.3 1920 1028.7 1920 1054.3L1920 1080Z" fill="#f0eb8d"></path><path d="M1285 1080L1286.2 1054.3C1287.3 1028.7 1289.7 977.3 1303.5 925.8C1317.3 874.3 1342.7 822.7 1367.3 771.2C1392 719.7 1416 668.3 1436.2 617C1456.3 565.7 1472.7 514.3 1483.5 463C1494.3 411.7 1499.7 360.3 1482.5 308.8C1465.3 257.3 1425.7 205.7 1402.2 154.2C1378.7 102.7 1371.3 51.3 1367.7 25.7L1364 0L1920 0L1920 25.7C1920 51.3 1920 102.7 1920 154.2C1920 205.7 1920 257.3 1920 308.8C1920 360.3 1920 411.7 1920 463C1920 514.3 1920 565.7 1920 617C1920 668.3 1920 719.7 1920 771.2C1920 822.7 1920 874.3 1920 925.8C1920 977.3 1920 1028.7 1920 1054.3L1920 1080Z" fill="#e0db7d"></path><path d="M1430 1080L1425.2 1054.3C1420.3 1028.7 1410.7 977.3 1411.2 925.8C1411.7 874.3 1422.3 822.7 1456.8 771.2C1491.3 719.7 1549.7 668.3 1559.3 617C1569 565.7 1530 514.3 1507.5 463C1485 411.7 1479 360.3 1486.7 308.8C1494.3 257.3 1515.7 205.7 1530.8 154.2C1546 102.7 1555 51.3 1559.5 25.7L1564 0L1920 0L1920 25.7C1920 51.3 1920 102.7 1920 154.2C1920 205.7 1920 257.3 1920 308.8C1920 360.3 1920 411.7 1920 463C1920 514.3 1920 565.7 1920 617C1920 668.3 1920 719.7 1920 771.2C1920 822.7 1920 874.3 1920 925.8C1920 977.3 1920 1028.7 1920 1054.3L1920 1080Z" fill="#d0cb6d"></path><path d="M1641 1080L1652 1054.3C1663 1028.7 1685 977.3 1679.5 925.8C1674 874.3 1641 822.7 1636.5 771.2C1632 719.7 1656 668.3 1647.2 617C1638.3 565.7 1596.7 514.3 1586.5 463C1576.3 411.7 1597.7 360.3 1623.5 308.8C1649.3 257.3 1679.7 205.7 1671.3 154.2C1663 102.7 1616 51.3 1592.5 25.7L1569 0L1920 0L1920 25.7C1920 51.3 1920 102.7 1920 154.2C1920 205.7 1920 257.3 1920 308.8C1920 360.3 1920 411.7 1920 463C1920 514.3 1920 565.7 1920 617C1920 668.3 1920 719.7 1920 771.2C1920 822.7 1920 874.3 1920 925.8C1920 977.3 1920 1028.7 1920 1054.3L1920 1080Z" fill="#c0bb5d"></path><path d="M1708 1080L1713 1054.3C1718 1028.7 1728 977.3 1740 925.8C1752 874.3 1766 822.7 1774.8 771.2C1783.7 719.7 1787.3 668.3 1796.7 617C1806 565.7 1821 514.3 1818 463C1815 411.7 1794 360.3 1770.8 308.8C1747.7 257.3 1722.3 205.7 1731.3 154.2C1740.3 102.7 1783.7 51.3 1805.3 25.7L1827 0L1920 0L1920 25.7C1920 51.3 1920 102.7 1920 154.2C1920 205.7 1920 257.3 1920 308.8C1920 360.3 1920 411.7 1920 463C1920 514.3 1920 565.7 1920 617C1920 668.3 1920 719.7 1920 771.2C1920 822.7 1920 874.3 1920 925.8C1920 977.3 1920 1028.7 1920 1054.3L1920 1080Z" fill="#b0ab4d"></path></svg>