<svg id="visual" viewBox="0 0 1920 1080" width="1920" height="1080" xmlns="http://www.w3.org/2000/svg" xmlns:xlink="http://www.w3.org/1999/xlink" version="1.1"><rect x="0" y="0" width="1920" height="1080" fill="#F0EB8D"></rect><path d="M0 191L29.2 201.7C58.3 212.3 116.7 233.7 174.8 227C233 220.3 291 185.7 349.2 170.7C407.3 155.7 465.7 160.3 523.8 177.7C582 195 640 225 698.2 234.5C756.3 244 814.7 233 872.8 223C931 213 989 204 1047.2 193.8C1105.3 183.7 1163.7 172.3 1221.8 168.8C1280 165.3 1338 169.7 1396.2 177.8C1454.3 186 1512.7 198 1570.8 198.5C1629 199 1687 188 1745.2 188.7C1803.3 189.3 1861.7 201.7 1890.8 207.8L1920 214L1920 0L1890.8 0C1861.7 0 1803.3 0 1745.2 0C1687 0 1629 0 1570.8 0C1512.7 0 1454.3 0 1396.2 0C1338 0 1280 0 1221.8 0C1163.7 0 1105.3 0 1047.2 0C989 0 931 0 872.8 0C814.7 0 756.3 0 698.2 0C640 0 582 0 523.8 0C465.7 0 407.3 0 349.2 0C291 0 233 0 174.8 0C116.7 0 58.3 0 29.2 0L0 0Z" fill="#FFFFFF" stroke-linecap="round" stroke-linejoin="miter"></path></svg>