<svg id="visual" viewBox="0 0 1920 1080" width="1920" height="1080" xmlns="http://www.w3.org/2000/svg" xmlns:xlink="http://www.w3.org/1999/xlink" version="1.1"><rect x="0" y="0" width="1920" height="1080" fill="#ffffff"></rect><path d="M1039 1080L1050 1054.3C1061 1028.7 1083 977.3 1090.8 925.8C1098.7 874.3 1092.3 822.7 1055.3 771.2C1018.3 719.7 950.7 668.3 938.3 617C926 565.7 969 514.3 964.5 463C960 411.7 908 360.3 937.7 308.8C967.3 257.3 1078.7 205.7 1082.8 154.2C1087 102.7 984 51.3 932.5 25.7L881 0L1920 0L1920 25.7C1920 51.3 1920 102.7 1920 154.2C1920 205.7 1920 257.3 1920 308.8C1920 360.3 1920 411.7 1920 463C1920 514.3 1920 565.7 1920 617C1920 668.3 1920 719.7 1920 771.2C1920 822.7 1920 874.3 1920 925.8C1920 977.3 1920 1028.7 1920 1054.3L1920 1080Z" fill="#f0eb8d"></path><path d="M1035 1080L1092 1054.3C1149 1028.7 1263 977.3 1271.2 925.8C1279.3 874.3 1181.7 822.7 1148.5 771.2C1115.3 719.7 1146.7 668.3 1183 617C1219.3 565.7 1260.7 514.3 1249.3 463C1238 411.7 1174 360.3 1165.7 308.8C1157.3 257.3 1204.7 205.7 1191.7 154.2C1178.7 102.7 1105.3 51.3 1068.7 25.7L1032 0L1920 0L1920 25.7C1920 51.3 1920 102.7 1920 154.2C1920 205.7 1920 257.3 1920 308.8C1920 360.3 1920 411.7 1920 463C1920 514.3 1920 565.7 1920 617C1920 668.3 1920 719.7 1920 771.2C1920 822.7 1920 874.3 1920 925.8C1920 977.3 1920 1028.7 1920 1054.3L1920 1080Z" fill="#e0db7d"></path><path d="M1198 1080L1248.8 1054.3C1299.7 1028.7 1401.3 977.3 1425.3 925.8C1449.3 874.3 1395.7 822.7 1359 771.2C1322.3 719.7 1302.7 668.3 1287.8 617C1273 565.7 1263 514.3 1288.3 463C1313.7 411.7 1374.3 360.3 1367.5 308.8C1360.7 257.3 1286.3 205.7 1255.5 154.2C1224.7 102.7 1237.3 51.3 1243.7 25.7L1250 0L1920 0L1920 25.7C1920 51.3 1920 102.7 1920 154.2C1920 205.7 1920 257.3 1920 308.8C1920 360.3 1920 411.7 1920 463C1920 514.3 1920 565.7 1920 617C1920 668.3 1920 719.7 1920 771.2C1920 822.7 1920 874.3 1920 925.8C1920 977.3 1920 1028.7 1920 1054.3L1920 1080Z" fill="#d0cb6d"></path><path d="M1615 1080L1612.5 1054.3C1610 1028.7 1605 977.3 1580 925.8C1555 874.3 1510 822.7 1500 771.2C1490 719.7 1515 668.3 1520.7 617C1526.3 565.7 1512.7 514.3 1512.3 463C1512 411.7 1525 360.3 1534.7 308.8C1544.3 257.3 1550.7 205.7 1572.3 154.2C1594 102.7 1631 51.3 1649.5 25.7L1668 0L1920 0L1920 25.7C1920 51.3 1920 102.7 1920 154.2C1920 205.7 1920 257.3 1920 308.8C1920 360.3 1920 411.7 1920 463C1920 514.3 1920 565.7 1920 617C1920 668.3 1920 719.7 1920 771.2C1920 822.7 1920 874.3 1920 925.8C1920 977.3 1920 1028.7 1920 1054.3L1920 1080Z" fill="#c0bb5d"></path><path d="M1707 1080L1704.5 1054.3C1702 1028.7 1697 977.3 1700.7 925.8C1704.3 874.3 1716.7 822.7 1719.2 771.2C1721.7 719.7 1714.3 668.3 1706.2 617C1698 565.7 1689 514.3 1699.5 463C1710 411.7 1740 360.3 1724.2 308.8C1708.3 257.3 1646.7 205.7 1640.2 154.2C1633.7 102.7 1682.3 51.3 1706.7 25.7L1731 0L1920 0L1920 25.7C1920 51.3 1920 102.7 1920 154.2C1920 205.7 1920 257.3 1920 308.8C1920 360.3 1920 411.7 1920 463C1920 514.3 1920 565.7 1920 617C1920 668.3 1920 719.7 1920 771.2C1920 822.7 1920 874.3 1920 925.8C1920 977.3 1920 1028.7 1920 1054.3L1920 1080Z" fill="#b0ab4d"></path></svg>